<svg width="24" height="24" viewBox="0 0 24 24" fill="none" xmlns="http://www.w3.org/2000/svg">
<g clip-path="url(#clip0_4:5)">
<path d="M6.62 11.1225C8.06 13.7923 10.38 15.9716 13.21 17.3395L15.41 15.264C15.68 15.0093 16.08 14.9244 16.43 15.0376C17.55 15.3866 18.76 15.5753 20 15.5753C20.55 15.5753 21 15.9999 21 16.5187V19.8112C21 20.33 20.55 20.7546 20 20.7546C10.61 20.7546 3 13.5753 3 4.71683C3 4.19797 3.45 3.77344 4 3.77344H7.5C8.05 3.77344 8.5 4.19797 8.5 4.71683C8.5 5.89608 8.7 7.02815 9.07 8.08476C9.18 8.41495 9.1 8.78287 8.82 9.04702L6.62 11.1225Z" fill="#AFAFAF"/>
</g>
<defs>
<clipPath id="clip0_4:5">
<rect width="24" height="22.6415" fill="white" transform="translate(0 0.943359)"/>
</clipPath>
</defs>
</svg>
